<svg xmlns="http://www.w3.org/2000/svg" width="2040" height="2048" viewBox="0 0 2040 2048" version="1.1"><path d="M 959.500 47.127 C 938.636 48.372, 898.940 52.598, 875.876 56.030 C 751.141 74.591, 631.740 117.237, 523.999 181.710 C 516.838 185.994, 509.522 190.372, 507.740 191.438 C 499.928 196.112, 461.516 222.020, 451.500 229.372 C 389.152 275.133, 334.932 324.788, 287.597 379.476 C 109.270 585.503, 26.777 849.685, 56.050 1121 C 68.006 1231.812, 100.094 1341.655, 149.969 1442.500 C 157.041 1456.800, 166.494 1475.025, 170.974 1483 C 175.941 1491.840, 178.959 1498.281, 178.706 1499.500 C 178.477 1500.600, 175.469 1511.625, 172.021 1524 C 168.573 1536.375, 164.735 1550.325, 163.493 1555 C 162.251 1559.675, 158.429 1573.625, 155 1586 C 151.571 1598.375, 147.746 1612.325, 146.500 1617 C 145.254 1621.675, 141.429 1635.625, 138 1648 C 134.571 1660.375, 130.746 1674.325, 129.500 1679 C 128.254 1683.675, 124.440 1697.625, 121.025 1710 C 117.609 1722.375, 114.214 1734.750, 113.479 1737.500 C 111.898 1743.424, 97.070 1797.624, 85.848 1838.500 C 81.469 1854.450, 76.610 1872.225, 75.049 1878 C 73.488 1883.775, 69.410 1898.625, 65.988 1911 C 62.565 1923.375, 58.749 1937.325, 57.507 1942 C 56.265 1946.675, 52.427 1960.625, 48.979 1973 C 41.301 2000.556, 41.386 2000.171, 43.131 1999.510 C 43.884 1999.225, 59.125 1995.140, 77 1990.433 C 94.875 1985.725, 113.662 1980.777, 118.750 1979.437 C 123.838 1978.097, 132.162 1975.909, 137.250 1974.576 C 160.558 1968.470, 415.314 1901.613, 421.750 1899.914 C 437.499 1895.756, 445.467 1893.662, 499.159 1879.574 L 554.817 1864.969 576.159 1875.909 C 750.557 1965.314, 946.526 1999.672, 1141 1974.939 C 1263.359 1959.378, 1379.351 1921.306, 1487.891 1861.079 C 1549.242 1827.036, 1607.329 1785.804, 1662 1737.492 C 1682.132 1719.701, 1727.658 1673.883, 1745.360 1653.597 C 1832.606 1553.616, 1895.871 1443.696, 1937.363 1320 C 1954.055 1270.240, 1965.653 1222.820, 1975.029 1166 C 1978.824 1143.005, 1981.977 1114.290, 1985.187 1073.500 C 1986.855 1052.301, 1986.846 975.913, 1985.172 953 C 1982.120 911.205, 1978.602 881.123, 1972.892 848 C 1956.593 753.448, 1928.375 667.222, 1885.841 582 C 1853.751 517.703, 1816.381 459.771, 1770.699 403.500 C 1735.789 360.500, 1691.110 314.627, 1648.500 278.037 C 1508.878 158.142, 1341.449 82.018, 1159 55.478 C 1136.246 52.168, 1098.317 48.360, 1075 47.045 C 1053.680 45.842, 980.156 45.894, 959.500 47.127 M 987.500 210.057 C 875.025 213.829, 760.750 243.077, 659 294.136 C 515.147 366.322, 395.878 479.889, 316.773 620 C 215.698 799.026, 187.523 1011.158, 238.095 1212.373 C 252.544 1269.861, 275.859 1331.420, 302.719 1383 C 315.470 1407.486, 323.011 1420.462, 345.853 1457.220 C 350.884 1465.316, 355 1472.458, 355 1473.091 C 355 1474.383, 338.641 1534.383, 287.816 1719.500 C 274.446 1768.198, 274.240 1769, 275.157 1769 C 276.040 1769, 416.345 1732.163, 568.330 1692.028 L 579.160 1689.168 597.838 1700.402 C 635.784 1723.225, 666.240 1738.896, 703.710 1754.878 C 858.757 1821.010, 1033.908 1836.575, 1198 1798.805 C 1362.782 1760.875, 1511.710 1671.631, 1623.688 1543.713 C 1777.830 1367.630, 1847.060 1135.489, 1814.978 902.284 C 1796.832 770.382, 1744.507 642.193, 1665.466 536 C 1551.723 383.184, 1392.935 277.076, 1211.257 232.480 C 1173.086 223.110, 1133.797 216.614, 1090.500 212.514 C 1075.564 211.100, 1024.075 208.853, 1014 209.176 C 1011.525 209.255, 999.600 209.652, 987.500 210.057 M 667 566.666 C 641.907 570.613, 626.313 579.969, 603.280 604.895 C 563.967 647.440, 542.850 687.299, 532.498 738.500 C 525.915 771.059, 525.213 809.943, 530.611 843 C 540.475 903.408, 572.139 974.002, 618.524 1039 C 624.608 1047.525, 633.583 1060.350, 638.470 1067.500 C 679.942 1128.184, 722.307 1179.299, 774.477 1231.598 C 808.649 1265.855, 827.882 1283.258, 858 1307.173 C 910.227 1348.643, 966.049 1382.911, 1018.500 1405.698 C 1045.277 1417.332, 1096.185 1436.365, 1132.500 1448.321 C 1203.473 1471.686, 1253.559 1480.926, 1293.762 1478.070 C 1339.569 1474.816, 1357.969 1469.958, 1392.907 1451.892 C 1440.608 1427.228, 1478.275 1392.911, 1490.879 1362.635 C 1503.137 1333.191, 1512.116 1280.774, 1509.041 1256.613 C 1507.702 1246.090, 1506.515 1243.504, 1500.668 1238.357 C 1494.812 1233.203, 1490.600 1230.978, 1433.500 1202.893 C 1308.612 1141.465, 1284.621 1131, 1268.684 1131 C 1255.721 1131, 1249.894 1135.342, 1235.030 1156.079 C 1218.936 1178.530, 1164.665 1243.880, 1156.774 1250.310 C 1154.423 1252.225, 1150.700 1254.565, 1148.500 1255.511 C 1142.929 1257.904, 1132.093 1257.761, 1124.500 1255.193 C 1115.098 1252.013, 1069.049 1231.135, 1049.301 1221.098 C 999.302 1195.687, 951.150 1161.656, 906.755 1120.356 C 865.606 1082.076, 819.803 1024.732, 787.834 971.473 C 777.976 955.050, 775.511 948.332, 776.270 939.958 C 777.006 931.840, 780.737 925.562, 791.936 913.599 C 807.217 897.275, 836.117 861.926, 841.162 853.389 C 848.583 840.830, 856.020 823.719, 857.116 816.686 C 858.427 808.262, 856.577 799.524, 850.722 786.485 C 846.036 776.050, 840.997 763.894, 819.017 710 C 781.949 619.110, 772.438 597.837, 763.815 586.529 C 753.441 572.924, 744.748 568.476, 725.620 566.988 C 713.976 566.082, 672.170 565.852, 667 566.666" stroke="none" fill="#fbfbfb" fill-rule="evenodd"/><path d="M 986 35.055 C 970.325 35.515, 952.100 36.366, 945.500 36.946 C 921.967 39.011, 895.256 42.145, 879.500 44.689 C 870.700 46.110, 860.800 47.597, 857.500 47.995 C 841.774 49.889, 791.412 60.863, 767.803 67.540 C 763.020 68.893, 758.552 70, 757.875 70 C 755.664 70, 706.082 85.568, 694 90.057 C 689.875 91.589, 683.125 94.044, 679 95.512 C 642.809 108.393, 596.993 129.077, 557 150.591 C 537.612 161.020, 535.524 162.170, 529.291 165.842 C 525.876 167.854, 520.026 171.262, 516.291 173.417 C 512.556 175.571, 508.108 178.383, 506.406 179.667 C 504.704 180.950, 502.992 182, 502.602 182 C 501.291 182, 465.172 205.891, 450.833 216.243 C 429.425 231.698, 421.270 237.741, 417.426 241 C 415.155 242.925, 409.293 247.638, 404.399 251.474 C 354.296 290.736, 284.751 360.713, 247.844 409 C 243.850 414.225, 239.734 419.400, 238.697 420.500 C 237.660 421.600, 235.415 424.525, 233.709 427 C 232.002 429.475, 228.436 434.311, 225.784 437.746 C 221.132 443.771, 218.708 447.247, 200.755 473.631 C 192.172 486.245, 183.357 499.820, 181.415 503.416 C 180.796 504.562, 177.257 510.450, 173.552 516.500 C 169.847 522.550, 165.719 529.525, 164.379 532 C 163.039 534.475, 160.918 538.300, 159.666 540.500 C 147.258 562.291, 128.818 599.092, 119.578 620.500 C 116.967 626.550, 113.908 633.471, 112.780 635.881 C 108.113 645.850, 89.234 695.221, 87.305 702.500 C 87.013 703.600, 85.532 708.100, 84.012 712.500 C 82.493 716.900, 80.083 724.325, 78.657 729 C 77.231 733.675, 74.699 741.893, 73.032 747.262 C 71.364 752.631, 70 757.626, 70 758.363 C 70 759.099, 68.701 764.156, 67.114 769.601 C 65.527 775.045, 63.049 784.675, 61.606 791 C 60.164 797.325, 57.638 808.188, 55.992 815.141 C 54.347 822.093, 53 828.938, 53 830.352 C 53 831.766, 52.065 836.877, 50.922 841.711 C 49.780 846.545, 48.504 853.650, 48.087 857.500 C 47.671 861.350, 46.142 871.925, 44.691 881 C 37.202 927.815, 34.455 975.291, 35.406 1041.500 C 35.995 1082.541, 36.571 1092.406, 40.491 1128.668 C 50.248 1218.923, 73.697 1310.380, 109.337 1397.186 C 111.298 1401.964, 113.320 1406.689, 113.830 1407.686 C 114.340 1408.684, 115.987 1412.425, 117.489 1416 C 121.036 1424.436, 122.168 1426.868, 133.086 1449.500 C 147.247 1478.856, 152.907 1491.835, 155.107 1500 C 158.046 1510.912, 158.585 1524.508, 156.513 1535.500 C 155.580 1540.450, 154.436 1546.630, 153.971 1549.234 C 153.506 1551.838, 152.219 1557.013, 151.112 1560.734 C 150.004 1564.455, 148.401 1570.088, 147.549 1573.250 C 145.021 1582.634, 143.049 1589.855, 139.832 1601.500 C 136.510 1613.526, 133.005 1626.290, 130.566 1635.250 C 127.386 1646.926, 125.786 1652.756, 122.809 1663.500 C 121.133 1669.550, 118.720 1678.325, 117.446 1683 C 112.526 1701.068, 111.953 1703.173, 110.447 1708.750 C 109.593 1711.912, 107.829 1718.325, 106.527 1723 C 105.224 1727.675, 102.805 1736.450, 101.151 1742.500 C 99.497 1748.550, 97.392 1756.200, 96.474 1759.500 C 95.556 1762.800, 94.005 1768.666, 93.029 1772.536 C 92.052 1776.406, 90.323 1782.706, 89.186 1786.536 C 88.049 1790.366, 85.771 1798.450, 84.124 1804.500 C 82.477 1810.550, 80.384 1818.200, 79.472 1821.500 C 78.561 1824.800, 77.030 1830.650, 76.070 1834.500 C 75.111 1838.350, 73.379 1844.650, 72.222 1848.500 C 71.065 1852.350, 68.771 1860.450, 67.124 1866.500 C 65.477 1872.550, 63.384 1880.200, 62.472 1883.500 C 61.561 1886.800, 60.030 1892.650, 59.070 1896.500 C 58.111 1900.350, 56.375 1906.650, 55.213 1910.500 C 54.051 1914.350, 51.916 1922, 50.470 1927.500 C 49.023 1933, 46.705 1941.520, 45.318 1946.434 C 42.490 1956.455, 40.045 1971.110, 40.018 1978.201 C 39.998 1983.531, 41.814 1993, 42.856 1993 C 43.462 1993, 47.449 1979.126, 57.083 1943.500 C 58.570 1938, 62.583 1923.375, 65.999 1911 C 69.415 1898.625, 73.488 1883.775, 75.049 1878 C 76.610 1872.225, 81.469 1854.450, 85.848 1838.500 C 97.070 1797.624, 111.898 1743.424, 113.479 1737.500 C 114.214 1734.750, 117.609 1722.375, 121.025 1710 C 124.440 1697.625, 128.254 1683.675, 129.500 1679 C 130.746 1674.325, 134.571 1660.375, 138 1648 C 141.429 1635.625, 145.254 1621.675, 146.500 1617 C 147.746 1612.325, 151.571 1598.375, 155 1586 C 158.429 1573.625, 162.251 1559.675, 163.493 1555 C 164.735 1550.325, 168.573 1536.375, 172.021 1524 C 175.469 1511.625, 178.477 1500.600, 178.706 1499.500 C 178.959 1498.281, 175.941 1491.840, 170.974 1483 C 151.938 1449.119, 127.810 1397.107, 113.194 1358.442 C 46.412 1181.790, 32.390 991.008, 72.628 806.500 C 125.835 562.522, 273.803 346.745, 483.500 207.338 C 495.050 199.659, 505.958 192.505, 507.740 191.438 C 509.522 190.372, 516.838 185.994, 523.999 181.710 C 613.974 127.868, 714.171 88.472, 816.500 66.701 C 862.361 56.944, 915.536 49.778, 962.361 47.043 C 985.375 45.699, 1051.161 45.700, 1075 47.045 C 1287.162 59.012, 1487.322 139.632, 1648.500 278.037 C 1691.110 314.627, 1735.789 360.500, 1770.699 403.500 C 1816.381 459.771, 1853.751 517.703, 1885.841 582 C 1933.729 677.950, 1964.153 777.337, 1978.442 884.500 C 1984.409 929.251, 1986.451 962.272, 1986.448 1014 C 1986.446 1056, 1986.025 1065.692, 1982.435 1106.442 C 1973.478 1208.124, 1944.264 1317.982, 1900.780 1413.500 C 1861.474 1499.841, 1809.595 1579.986, 1745.360 1653.597 C 1727.658 1673.883, 1682.132 1719.701, 1662 1737.492 C 1540.513 1844.849, 1399.633 1918.631, 1245 1955.885 C 1132.342 1983.027, 1013.695 1989.751, 899.500 1975.467 C 785.965 1961.265, 677.533 1927.878, 576.159 1875.909 L 554.817 1864.969 499.159 1879.574 C 445.467 1893.662, 437.499 1895.756, 421.750 1899.914 C 414.321 1901.875, 155.337 1969.839, 135.500 1975.033 C 129.450 1976.617, 120.450 1978.985, 115.500 1980.295 C 110.550 1981.606, 93 1986.207, 76.500 1990.520 C 60 1994.833, 46.311 1998.507, 46.079 1998.685 C 44.997 1999.517, 51.065 2004.481, 56 2006.801 C 60.843 2009.077, 62.813 2009.391, 72.500 2009.433 C 83.772 2009.482, 86.956 2008.929, 109.500 2003.010 C 115.550 2001.422, 125.225 1998.913, 131 1997.434 C 136.775 1995.956, 144.650 1993.857, 148.500 1992.770 C 152.350 1991.683, 158.875 1990.006, 163 1989.043 C 167.125 1988.079, 174.100 1986.279, 178.500 1985.041 C 182.900 1983.804, 190.550 1981.741, 195.500 1980.457 C 200.450 1979.173, 208.775 1976.924, 214 1975.461 C 219.225 1973.997, 225.300 1972.474, 227.500 1972.076 C 229.700 1971.678, 234.875 1970.407, 239 1969.251 C 243.125 1968.095, 251.900 1965.729, 258.500 1963.994 C 265.100 1962.258, 272.750 1960.214, 275.500 1959.451 C 283.077 1957.348, 307.968 1950.905, 312.500 1949.874 C 314.700 1949.373, 320.325 1947.884, 325 1946.564 C 329.675 1945.244, 338.225 1942.957, 344 1941.482 C 354.717 1938.744, 368.882 1935.030, 388.500 1929.814 C 394.550 1928.205, 403.550 1925.833, 408.500 1924.543 C 413.450 1923.253, 422.675 1920.833, 429 1919.165 C 435.325 1917.498, 444.775 1915.031, 450 1913.684 C 455.225 1912.336, 464.900 1909.808, 471.500 1908.064 C 524.490 1894.067, 522.317 1894.500, 539.500 1894.500 C 552.328 1894.500, 555.658 1894.841, 562.500 1896.857 C 573.542 1900.111, 586.329 1905.474, 609.500 1916.572 C 618.189 1920.733, 641.121 1930.693, 646.500 1932.641 C 648.700 1933.437, 651.986 1934.777, 653.803 1935.617 C 655.620 1936.457, 659.445 1937.990, 662.303 1939.024 C 665.161 1940.059, 670.650 1942.094, 674.500 1943.548 C 682.013 1946.385, 719.708 1959.174, 734.500 1963.904 C 747.111 1967.937, 776.292 1975.667, 796.500 1980.328 C 836.021 1989.443, 886.384 1998.132, 911 2000.082 C 916.775 2000.539, 927.800 2001.589, 935.500 2002.414 C 961.133 2005.160, 981.119 2006, 1020.483 2005.985 C 1060.074 2005.969, 1077.904 2005.210, 1104 2002.430 C 1111.975 2001.580, 1123.450 2000.505, 1129.500 2000.039 C 1142.927 1999.007, 1183.296 1993.130, 1192 1990.941 C 1193.925 1990.456, 1198.641 1989.616, 1202.480 1989.073 C 1206.319 1988.530, 1214.644 1986.912, 1220.980 1985.478 C 1227.316 1984.045, 1237.450 1981.756, 1243.500 1980.393 C 1264.110 1975.750, 1287.247 1969.594, 1305.500 1963.895 C 1325.239 1957.732, 1360.519 1945.742, 1361.450 1944.880 C 1361.972 1944.396, 1363.042 1944, 1363.826 1944 C 1365.234 1944, 1379.543 1938.532, 1387.695 1934.880 C 1390.002 1933.846, 1392.490 1933, 1393.223 1933 C 1393.955 1933, 1395.443 1932.400, 1396.527 1931.668 C 1397.612 1930.935, 1403.587 1928.219, 1409.805 1925.632 C 1425.740 1919.001, 1462.322 1901.583, 1473 1895.542 C 1474.375 1894.764, 1483.150 1889.968, 1492.500 1884.884 C 1515.179 1872.552, 1520.237 1869.690, 1528.500 1864.517 C 1532.350 1862.107, 1537.975 1858.678, 1541 1856.897 C 1544.025 1855.117, 1548.300 1852.440, 1550.500 1850.950 C 1552.700 1849.460, 1560.061 1844.546, 1566.859 1840.030 C 1587.931 1826.032, 1613.568 1807.275, 1631.867 1792.469 C 1639.365 1786.402, 1646.456 1780.774, 1647.625 1779.963 C 1648.794 1779.151, 1660.494 1768.978, 1673.625 1757.357 C 1699.958 1734.052, 1737.692 1696.383, 1757.016 1674.111 C 1763.882 1666.197, 1770.978 1658.097, 1772.784 1656.111 C 1774.590 1654.125, 1779.540 1648.035, 1783.784 1642.577 C 1788.028 1637.120, 1793.111 1630.820, 1795.080 1628.577 C 1803.509 1618.979, 1832.016 1579.013, 1849.912 1551.706 C 1853.830 1545.727, 1870.943 1517.698, 1874.765 1511 C 1889.121 1485.840, 1908.176 1448.519, 1919.184 1424 C 1927.635 1405.178, 1932 1395.140, 1932 1394.528 C 1932 1394.226, 1932.844 1392.071, 1933.875 1389.739 C 1937.961 1380.498, 1953 1340.248, 1953 1338.551 C 1953 1338.053, 1954.285 1334.012, 1955.855 1329.572 C 1959.955 1317.983, 1966.414 1296.775, 1972.323 1275.500 C 1979.027 1251.365, 1990.670 1197.262, 1992.444 1182 C 1992.732 1179.525, 1993.890 1172.325, 1995.019 1166 C 1996.147 1159.675, 1997.489 1150.225, 1998 1145 C 1998.512 1139.775, 1999.854 1127.850, 2000.983 1118.500 C 2007.184 1067.148, 2006.982 972.545, 2000.549 915.500 C 1994.810 864.617, 1987.166 822.048, 1974.868 772.500 C 1973.121 765.459, 1964.780 736.428, 1961.882 727.302 C 1960.800 723.894, 1959.302 718.944, 1958.554 716.302 C 1957.084 711.114, 1947.300 682.960, 1943.852 674 C 1940.681 665.757, 1936.044 654.072, 1933.933 649 C 1922.923 622.553, 1921.767 619.893, 1915.244 606 C 1899.019 571.442, 1875.566 527.431, 1865.866 513.337 C 1864.289 511.047, 1863 508.884, 1863 508.530 C 1863 505.685, 1818.642 440.528, 1805.794 424.500 C 1803.149 421.200, 1797.726 414.353, 1793.742 409.283 C 1773.392 383.386, 1759.366 367.317, 1734.767 341.716 C 1710.074 316.018, 1676.893 284.277, 1660.500 270.672 C 1653.350 264.738, 1644.125 256.998, 1640 253.472 C 1635.875 249.947, 1629.052 244.461, 1624.838 241.281 C 1620.624 238.101, 1614.774 233.669, 1611.838 231.430 C 1594.880 218.501, 1551.111 188, 1549.517 188 C 1549.271 188, 1545.233 185.525, 1540.544 182.500 C 1535.855 179.475, 1531.802 177, 1531.538 177 C 1531.274 177, 1529.133 175.707, 1526.779 174.126 C 1520.241 169.736, 1495.735 155.776, 1483 149.186 C 1441.653 127.793, 1422.788 119.006, 1389 105.399 C 1381.575 102.409, 1374.600 99.588, 1373.500 99.131 C 1372.400 98.673, 1369.925 97.745, 1368 97.069 C 1366.075 96.392, 1359.550 94.066, 1353.500 91.901 C 1324.992 81.696, 1279.633 67.845, 1265.701 65.091 C 1263.390 64.634, 1257 63.110, 1251.500 61.704 C 1241.274 59.091, 1233.261 57.293, 1220 54.637 C 1215.875 53.810, 1208 52.226, 1202.500 51.115 C 1197 50.004, 1190.925 48.866, 1189 48.587 C 1187.075 48.307, 1176.500 46.735, 1165.500 45.093 C 1146.201 42.212, 1132.203 40.537, 1102.500 37.554 C 1094.800 36.780, 1077.025 35.883, 1063 35.559 C 1048.975 35.235, 1032.325 34.801, 1026 34.594 C 1019.675 34.387, 1001.675 34.594, 986 35.055 M 987.500 210.057 C 875.025 213.829, 760.750 243.077, 659 294.136 C 515.147 366.322, 395.878 479.889, 316.773 620 C 215.698 799.026, 187.523 1011.158, 238.095 1212.373 C 252.544 1269.861, 275.859 1331.420, 302.719 1383 C 315.470 1407.486, 323.011 1420.462, 345.853 1457.220 C 350.884 1465.316, 355 1472.458, 355 1473.091 C 355 1474.383, 338.641 1534.383, 287.816 1719.500 C 274.446 1768.198, 274.240 1769, 275.157 1769 C 276.040 1769, 416.345 1732.163, 568.330 1692.028 L 579.160 1689.168 597.838 1700.402 C 635.784 1723.225, 666.240 1738.896, 703.710 1754.878 C 858.757 1821.010, 1033.908 1836.575, 1198 1798.805 C 1362.782 1760.875, 1511.710 1671.631, 1623.688 1543.713 C 1777.830 1367.630, 1847.060 1135.489, 1814.978 902.284 C 1796.832 770.382, 1744.507 642.193, 1665.466 536 C 1551.723 383.184, 1392.935 277.076, 1211.257 232.480 C 1173.086 223.110, 1133.797 216.614, 1090.500 212.514 C 1075.564 211.100, 1024.075 208.853, 1014 209.176 C 1011.525 209.255, 999.600 209.652, 987.500 210.057 M 667 566.666 C 641.907 570.613, 626.313 579.969, 603.280 604.895 C 563.967 647.440, 542.850 687.299, 532.498 738.500 C 525.915 771.059, 525.213 809.943, 530.611 843 C 540.475 903.408, 572.139 974.002, 618.524 1039 C 624.608 1047.525, 633.583 1060.350, 638.470 1067.500 C 679.942 1128.184, 722.307 1179.299, 774.477 1231.598 C 808.649 1265.855, 827.882 1283.258, 858 1307.173 C 910.227 1348.643, 966.049 1382.911, 1018.500 1405.698 C 1045.277 1417.332, 1096.185 1436.365, 1132.500 1448.321 C 1203.473 1471.686, 1253.559 1480.926, 1293.762 1478.070 C 1339.569 1474.816, 1357.969 1469.958, 1392.907 1451.892 C 1440.608 1427.228, 1478.275 1392.911, 1490.879 1362.635 C 1503.137 1333.191, 1512.116 1280.774, 1509.041 1256.613 C 1507.702 1246.090, 1506.515 1243.504, 1500.668 1238.357 C 1494.812 1233.203, 1490.600 1230.978, 1433.500 1202.893 C 1308.612 1141.465, 1284.621 1131, 1268.684 1131 C 1255.721 1131, 1249.894 1135.342, 1235.030 1156.079 C 1218.936 1178.530, 1164.665 1243.880, 1156.774 1250.310 C 1154.423 1252.225, 1150.700 1254.565, 1148.500 1255.511 C 1142.929 1257.904, 1132.093 1257.761, 1124.500 1255.193 C 1115.098 1252.013, 1069.049 1231.135, 1049.301 1221.098 C 999.302 1195.687, 951.150 1161.656, 906.755 1120.356 C 865.606 1082.076, 819.803 1024.732, 787.834 971.473 C 777.976 955.050, 775.511 948.332, 776.270 939.958 C 777.006 931.840, 780.737 925.562, 791.936 913.599 C 807.217 897.275, 836.117 861.926, 841.162 853.389 C 848.583 840.830, 856.020 823.719, 857.116 816.686 C 858.427 808.262, 856.577 799.524, 850.722 786.485 C 846.036 776.050, 840.997 763.894, 819.017 710 C 781.949 619.110, 772.438 597.837, 763.815 586.529 C 753.441 572.924, 744.748 568.476, 725.620 566.988 C 713.976 566.082, 672.170 565.852, 667 566.666" stroke="none" fill="#3ec450" fill-rule="evenodd"/></svg>